<svg width="72" height="16" viewBox="0 0 72 16" fill="none" xmlns="http://www.w3.org/2000/svg">
<path d="M44.3379 0.136719L44.2207 0.327148L39.0225 8.78809V14.7061C39.0224 14.8152 38.9857 14.9156 38.9121 14.9893C38.8383 15.0631 38.7373 15.1006 38.6279 15.1006H36.1104V8.78516L31.002 0.344727L30.8877 0.154297H34.0938L34.1309 0.214844L37.6377 6.04297L41.0928 0.198242L41.1289 0.136719H44.3379Z" fill="white" stroke="white" stroke-width="0.25"/>
<path d="M20.6338 0.19043V6.30664H26.0498V0.19043H28.7637V14.6689C28.7637 14.7963 28.7225 14.9025 28.6465 14.9785C28.5726 15.0524 28.4765 15.0881 28.3848 15.0996L28.377 15.1006H26.0498V8.625H20.6338V14.6689C20.6338 14.7843 20.607 14.8981 20.5264 14.9824C20.4448 15.0677 20.3301 15.1005 20.2031 15.1006H17.8652V0.19043H20.6338Z" fill="white" stroke="white" stroke-width="0.25"/>
<path d="M14.8146 10.564C14.8146 11.1761 14.6975 11.7538 14.4632 12.2971C14.2357 12.8336 13.9187 13.3047 13.512 13.7105C13.1123 14.1094 12.6402 14.4257 12.0957 14.6596C11.5581 14.8865 10.9826 15 10.3692 15C9.81785 15 9.28716 14.9037 8.77714 14.7111C8.27401 14.5186 7.81913 14.2366 7.41249 13.8652C7.00586 14.2366 6.54753 14.5186 6.03751 14.7111C5.52749 14.9037 4.9968 15 4.44543 15C3.83203 15 3.25309 14.8865 2.70861 14.6596C2.17102 14.4257 1.69891 14.1094 1.29228 13.7105C0.892532 13.3047 0.575494 12.8336 0.341161 12.2971C0.11372 11.7538 0 11.1761 0 10.564V0H2.96707V10.564C2.96707 10.7703 3.00497 10.9663 3.08079 11.152C3.1566 11.3308 3.25998 11.489 3.39093 11.6265C3.52877 11.7572 3.68729 11.8604 3.86649 11.936C4.04568 12.0117 4.23866 12.0495 4.44543 12.0495C4.65219 12.0495 4.84517 12.0117 5.02437 11.936C5.20356 11.8604 5.35864 11.7572 5.48959 11.6265C5.62743 11.489 5.73426 11.3308 5.81007 11.152C5.88589 10.9663 5.92379 10.7703 5.92379 10.564V0H8.89086V10.564C8.89086 10.7703 8.92876 10.9663 9.00458 11.152C9.08039 11.3308 9.18377 11.489 9.31472 11.6265C9.45257 11.7572 9.61109 11.8604 9.79028 11.936C9.96948 12.0117 10.1625 12.0495 10.3692 12.0495C10.576 12.0495 10.769 12.0117 10.9482 11.936C11.1274 11.8604 11.2824 11.7572 11.4134 11.6265C11.5512 11.489 11.6581 11.3308 11.7339 11.152C11.8166 10.9663 11.8579 10.7703 11.8579 10.564V0H14.8146V10.564Z" fill="white"/>
<path d="M57.8579 14.3972C57.8579 14.6733 57.6341 14.8972 57.3579 14.8972H54.6841L48.9671 5.15854V14.3972C48.9671 14.6733 48.7432 14.8972 48.4671 14.8972H46V0.103516H49.1738L54.8909 9.85248V0.103516H57.8579V14.3972Z" fill="white"/>
<path d="M71.0209 14.3972C71.0209 14.6733 70.797 14.8972 70.5209 14.8972H60.8584V0.103516H71.0209V3.06431H63.8255V6.02511H68.6948V8.98591H63.8255V11.9364H71.0209V14.3972Z" fill="white"/>
</svg>
