<svg width="23" height="14" viewBox="0 0 23 14" fill="none" xmlns="http://www.w3.org/2000/svg">
<path d="M11.15 13.1C10.8833 13.1 10.6333 13.0583 10.4 12.975C10.1667 12.8917 9.95 12.75 9.75 12.55L0.55 3.35C0.183333 2.98333 0 2.51667 0 1.95C0 1.38333 0.183333 0.916667 0.55 0.55C0.916667 0.183333 1.38333 0 1.95 0C2.51667 0 2.98333 0.183333 3.35 0.55L11.15 8.35L18.95 0.55C19.3167 0.183333 19.7833 0 20.35 0C20.9167 0 21.3833 0.183333 21.75 0.55C22.1167 0.916667 22.3 1.38333 22.3 1.95C22.3 2.51667 22.1167 2.98333 21.75 3.35L12.55 12.55C12.35 12.75 12.1333 12.8917 11.9 12.975C11.6667 13.0583 11.4167 13.1 11.15 13.1Z" fill="#484746"/>
</svg>
