<svg width="16" height="14" viewBox="0 0 16 14" fill="none" xmlns="http://www.w3.org/2000/svg">
<path d="M7.90862 13.7996C7.73021 13.7996 7.55099 13.7676 7.37098 13.7035C7.19095 13.6394 7.03256 13.5389 6.89581 13.4022L5.69873 12.3141C4.22116 10.9668 2.90198 9.64339 1.74119 8.34371C0.580396 7.04403 0 5.65167 0 4.16665C0 2.98397 0.398771 1.99385 1.19631 1.19631C1.99385 0.398772 2.98397 0 4.16665 0C4.83865 0 5.50237 0.154918 6.15783 0.464751C6.81328 0.774584 7.39955 1.27779 7.91665 1.97438C8.43374 1.27779 9.02001 0.774584 9.67546 0.464751C10.3309 0.154918 10.9946 0 11.6666 0C12.8493 0 13.8394 0.398772 14.637 1.19631C15.4345 1.99385 15.8333 2.98397 15.8333 4.16665C15.8333 5.6677 15.243 7.07555 14.0625 8.39019C12.8819 9.70483 11.5657 11.0171 10.1137 12.3269L8.92946 13.4022C8.79271 13.5389 8.63299 13.6394 8.45029 13.7035C8.2676 13.7676 8.08704 13.7996 7.90862 13.7996ZM7.31729 3.24038C6.86644 2.5534 6.39182 2.04993 5.89342 1.72996C5.39501 1.40997 4.81942 1.24998 4.16665 1.24998C3.33331 1.24998 2.63887 1.52776 2.08331 2.08331C1.52776 2.63887 1.24998 3.33331 1.24998 4.16665C1.24998 4.83545 1.46552 5.5347 1.8966 6.2644C2.32769 6.99409 2.86881 7.71951 3.51998 8.44065C4.17116 9.1618 4.87656 9.8664 5.63617 10.5544C6.39578 11.2425 7.09984 11.8819 7.74835 12.4727C7.79644 12.5155 7.85253 12.5368 7.91665 12.5368C7.98076 12.5368 8.03685 12.5155 8.08494 12.4727C8.73345 11.8819 9.43751 11.2425 10.1971 10.5544C10.9567 9.8664 11.6621 9.1618 12.3133 8.44065C12.9645 7.71951 13.5056 6.99409 13.9367 6.2644C14.3678 5.5347 14.5833 4.83545 14.5833 4.16665C14.5833 3.33331 14.3055 2.63887 13.75 2.08331C13.1944 1.52776 12.5 1.24998 11.6666 1.24998C11.0139 1.24998 10.4383 1.40997 9.93987 1.72996C9.44147 2.04993 8.96685 2.5534 8.516 3.24038C8.44549 3.34721 8.35681 3.42734 8.24998 3.48077C8.14313 3.53419 8.03202 3.5609 7.91665 3.5609C7.80127 3.5609 7.69016 3.53419 7.58331 3.48077C7.47648 3.42734 7.38781 3.34721 7.31729 3.24038Z" fill="#31302F"/>
</svg>
