<svg width="19" height="17" viewBox="0 0 19 17" fill="none" xmlns="http://www.w3.org/2000/svg">
<path d="M9.49035 16.5596C9.27625 16.5596 9.06119 16.5211 8.84518 16.4442C8.62914 16.3672 8.43908 16.2467 8.27498 16.0826L6.83848 14.7769C5.06539 13.1602 3.48238 11.5721 2.08943 10.0125C0.696475 8.45283 0 6.78201 0 4.99998C0 3.58076 0.478525 2.39263 1.43558 1.43558C2.39263 0.478526 3.58076 0 4.99998 0C5.80638 0 6.60285 0.185901 7.3894 0.557701C8.17593 0.929501 8.87946 1.53335 9.49998 2.36925C10.1205 1.53335 10.824 0.929501 11.6105 0.557701C12.3971 0.185901 13.1936 0 14 0C15.4192 0 16.6073 0.478526 17.5644 1.43558C18.5214 2.39263 19 3.58076 19 4.99998C19 6.80124 18.2916 8.49066 16.875 10.0682C15.4583 11.6458 13.8788 13.2205 12.1365 14.7923L10.7154 16.0826C10.5513 16.2467 10.3596 16.3672 10.1404 16.4442C9.92112 16.5211 9.70445 16.5596 9.49035 16.5596Z" fill="#C00F0C"/>
</svg>
