<svg width="24" height="24" viewBox="0 0 24 24" fill="none" xmlns="http://www.w3.org/2000/svg">
<path d="M11.1356 17.6887L9.89453 22.2206L16.2866 19.6637L15.0192 12.0593L11.1356 17.6887Z" fill="#1A1918"/>
<path d="M11.6006 3.96106L15.684 9.40555L23.9996 6.63369L18.8759 1.50992C18.677 1.31103 18.3787 1.24981 18.1176 1.35425L11.6006 3.96106Z" fill="#1A1918"/>
<path d="M4.01509 10.4224L0.508789 15.7525L6.1502 14.4979L4.01509 10.4224Z" fill="#1A1918"/>
<path d="M10.321 16.3959L14.5614 10.2494L10.6095 4.98022L9.47205 7.25512C9.39887 7.40141 9.27695 7.51762 9.12728 7.58362L5.05469 9.38005L7.74442 14.5142L10.321 16.3959Z" fill="#1A1918"/>
<path d="M0 17.3048L2.50064 22.3061C2.61975 22.5443 2.86322 22.6948 3.12952 22.6948H8.3077L9.68391 17.6697L7.04025 15.739L0 17.3048Z" fill="#1A1918"/>
<path d="M17.495 18.3713L21.4091 13.1525L23.9138 8.14307L16.2178 10.7084L17.495 18.3713Z" fill="#1A1918"/>
</svg>
