<svg width="24" height="24" viewBox="0 0 24 24" fill="none" xmlns="http://www.w3.org/2000/svg">
<g clip-path="url(#clip0_11686_4483)">
<path d="M18.4764 9.63372L14.3418 5.49899C14.0225 5.17972 13.7809 4.81208 13.6152 4.41968C11.7756 5.48127 9.50774 6.79961 7.55129 8.58202C5.55686 10.399 4.76222 11.8558 4.18457 13.9659L10.0094 19.7907C12.1195 19.2131 13.5763 18.4184 15.3932 16.424C17.1752 14.468 18.4933 12.2009 19.5548 10.3615C19.1568 10.193 18.791 9.94826 18.4764 9.63372Z" fill="#1A1918"/>
<path d="M22.9055 4.11884L23.4093 3.61506C24.1968 2.8275 24.1968 1.54611 23.4093 0.758546L23.2499 0.599215C22.4624 -0.188345 21.181 -0.188345 20.3934 0.599215L19.8896 1.10299L22.9055 4.11884Z" fill="#1A1918"/>
<path d="M2.78322 14.5526C2.58324 14.3527 2.28193 14.2894 2.02087 14.3982C1.66902 14.545 1.34582 14.7604 1.06812 15.0381L0.684914 15.4213C0.610006 15.4962 0.549067 15.585 0.513207 15.6847C0.417628 15.9505 0.487988 16.2353 0.676663 16.4239L7.54345 23.2906C7.61836 23.3655 7.70719 23.4266 7.80685 23.4625C8.07273 23.5584 8.35769 23.4879 8.54646 23.2992L8.93782 22.9077C9.21552 22.6301 9.43096 22.3068 9.57768 21.955C9.68652 21.694 9.62324 21.3926 9.42327 21.1927L2.78322 14.5526Z" fill="#1A1918"/>
<path d="M18.3196 1.52215C17.9422 1.14466 17.4403 0.936768 16.9064 0.936768C16.3725 0.936768 15.8706 1.14466 15.4932 1.52215L15.3363 1.67895C14.5572 2.45822 14.5572 3.72616 15.3364 4.50542L19.4709 8.64001C19.8606 9.0296 20.3723 9.22437 20.8841 9.22437C21.3959 9.22437 21.9078 9.0296 22.2973 8.63996L22.4541 8.48317C23.2334 7.7039 23.2334 6.43596 22.4541 5.65669L18.3196 1.52215Z" fill="#1A1918"/>
<path d="M0.703717 23.9922C1.0715 23.9922 1.42386 23.6688 1.40684 23.2891C1.38978 22.9081 1.09789 22.5859 0.703717 22.5859C0.335936 22.5859 -0.0164233 22.9093 0.00059228 23.2891C0.0176548 23.67 0.309499 23.9922 0.703717 23.9922Z" fill="#1A1918"/>
<path d="M4.01817 23.3955C4.38595 23.3955 4.73831 23.0721 4.7213 22.6924C4.70423 22.3114 4.41234 21.9893 4.01817 21.9893C3.65039 21.9893 3.29803 22.3126 3.31505 22.6924C3.33211 23.0733 3.624 23.3955 4.01817 23.3955Z" fill="#1A1918"/>
<path d="M1.3004 20.6792C1.66818 20.6792 2.02054 20.3558 2.00352 19.9761C1.98646 19.5951 1.69457 19.2729 1.3004 19.2729C0.932616 19.2729 0.580256 19.5963 0.597272 19.9761C0.614334 20.357 0.906178 20.6792 1.3004 20.6792Z" fill="#1A1918"/>
</g>
<defs>
<clipPath id="clip0_11686_4483">
<rect width="24" height="24" fill="white"/>
</clipPath>
</defs>
</svg>
