<svg width="64" height="64" viewBox="0 0 64 64" fill="none" xmlns="http://www.w3.org/2000/svg">
<circle cx="32" cy="32" r="32" fill="white"/>
<path d="M32 0C14.325 0 0 14.325 0 32C0 49.675 14.325 64 32 64C49.675 64 64 49.675 64 32C64 14.325 49.675 0 32 0ZM32 16C36.9712 16 41 20.03 41 25C41 29.97 36.975 34 32 34C27.03 34 23 29.97 23 25C23 20.03 27.025 16 32 16ZM32 56C25.3838 56 19.3875 53.3088 15.0375 48.9637C17.0625 43.7375 22.0625 40 28 40H36C41.9425 40 46.9425 43.735 48.9625 48.9637C44.6125 53.3125 38.6125 56 32 56Z" fill="#F2F2F2"/>
</svg>
