<svg width="40" height="40" viewBox="0 0 40 40" fill="none" xmlns="http://www.w3.org/2000/svg">
<path d="M20 33.5104L10.3055 39.6255C9.87721 39.9108 9.42947 40.0331 8.96226 39.9924C8.49506 39.9516 8.08625 39.7885 7.73585 39.5032C7.38544 39.2178 7.11291 38.8611 6.91824 38.433C6.72357 38.005 6.68464 37.526 6.80144 36.996L9.37107 25.4386L0.786163 17.6725C0.396825 17.3056 0.153489 16.8877 0.0561545 16.4189C-0.04118 15.9501 -0.0119796 15.4914 0.143756 15.043C0.299491 14.5946 0.533094 14.2277 0.844564 13.9423C1.15603 13.6569 1.58431 13.4735 2.12938 13.3919L13.4591 12.3524L17.8392 1.46761C18.0338 0.978406 18.3356 0.611504 18.7444 0.366902C19.1532 0.122301 19.5717 0 20 0C20.4283 0 20.8468 0.122301 21.2556 0.366902C21.6644 0.611504 21.9662 0.978406 22.1608 1.46761L26.5409 12.3524L37.8706 13.3919C38.4157 13.4735 38.844 13.6569 39.1554 13.9423C39.4669 14.2277 39.7005 14.5946 39.8562 15.043C40.012 15.4914 40.0412 15.9501 39.9438 16.4189C39.8465 16.8877 39.6032 17.3056 39.2138 17.6725L30.6289 25.4386L33.1986 36.996C33.3154 37.526 33.2764 38.005 33.0818 38.433C32.8871 38.8611 32.6146 39.2178 32.2642 39.5032C31.9137 39.7885 31.5049 39.9516 31.0377 39.9924C30.5705 40.0331 30.1228 39.9108 29.6945 39.6255L20 33.5104Z" fill="#31302F"/>
</svg>
