<svg width="24" height="24" viewBox="0 0 24 24" fill="none" xmlns="http://www.w3.org/2000/svg">
<g clip-path="url(#clip0_11686_4576)">
<path d="M22.6667 10.0601C23.1588 8.74476 23.3852 7.37057 23.3397 5.9751C23.2858 4.3326 22.8669 3.05254 22.6012 2.39521L19.3438 5.6526C20.1331 8.80659 20.4926 11.5087 20.4131 13.6889C20.4118 13.7254 20.4101 13.761 20.4088 13.7962C21.4179 12.6255 22.175 11.373 22.6667 10.0601ZM18.1741 6.82228L15.8916 9.10481C16.8186 12.8134 16.8582 15.473 16.7375 17.02C17.4839 16.499 18.1635 15.9704 18.7749 15.4341C18.9784 14.6421 19.3881 12.0813 18.1741 6.82228ZM3.92334 12.5966C3.50273 13.4721 3.08911 14.3964 2.68317 15.3689C4.03472 15.0387 5.92659 14.7621 7.97405 15.0274L10.215 12.7865C6.31795 12.1424 4.51322 12.441 3.92334 12.5966ZM7.66022 17.3362L0.997453 23.999C1.66209 23.8131 4.01845 23.1285 6.97294 21.9834L6.97327 21.9831C7.28283 21.0172 7.71605 19.2939 7.66022 17.3362ZM2.01586 17.0264C0.870469 19.9805 0.185859 22.3369 0 23.0015L6.66272 16.3388C4.70503 16.2829 2.98144 16.7165 2.01586 17.0264ZM11.2125 13.7839L8.97155 16.0249C9.23686 18.0723 8.96025 19.9642 8.63006 21.3157C9.60258 20.9098 10.5269 20.4962 11.4023 20.0756C11.558 19.4857 11.8565 17.681 11.2125 13.7839ZM5.96583 8.81324C5.54025 9.50817 5.12063 10.2496 4.70705 11.0362C5.97717 10.9112 8.09044 10.9385 11.432 11.5695L13.7225 9.27904C9.3007 8.29256 6.67336 8.67159 5.96583 8.81324ZM14.7193 10.2772L12.4294 12.567C13.0605 15.9085 13.0877 18.0218 12.9627 19.2919C13.7487 18.8789 14.4895 18.4594 15.1841 18.0341C15.3224 17.3239 15.6975 14.6707 14.7193 10.2772ZM8.56687 5.22201C8.02992 5.8341 7.50023 6.51407 6.97889 7.2615C8.52595 7.14079 11.1855 7.18035 14.8941 8.10735L17.1766 5.82482C11.9017 4.60626 9.34856 5.01951 8.56687 5.22201ZM18.0239 0.659292C16.6284 0.61373 15.2543 0.840183 13.9389 1.33223C12.6259 1.824 11.3734 2.58107 10.2027 3.59015C10.238 3.58884 10.2735 3.58715 10.3101 3.58584C12.4902 3.50639 15.1924 3.86578 18.3464 4.6551L21.6038 1.39771C20.9464 1.13207 19.6664 0.713151 18.0239 0.659292Z" fill="#1A1918"/>
<path d="M23.7933 1.20393L22.601 2.39624C22.4816 2.1013 22.3932 1.93175 22.3822 1.9108C22.3161 1.78611 22.2136 1.68369 22.089 1.61755C22.068 1.60658 21.8985 1.51813 21.6035 1.39879L22.7958 0.206473C23.0711 -0.0688242 23.518 -0.0688242 23.7933 0.206473C24.0686 0.48177 24.0686 0.928629 23.7933 1.20393Z" fill="#1A1918"/>
</g>
<defs>
<clipPath id="clip0_11686_4576">
<rect width="24" height="24" fill="white"/>
</clipPath>
</defs>
</svg>
