<svg width="24" height="24" viewBox="0 0 24 24" fill="none" xmlns="http://www.w3.org/2000/svg">
<path d="M11.0732 17.4187H12.6251V18.5826H11.0732V17.4187Z" fill="#1A1918"/>
<path d="M11.0732 15.4805H12.6251V16.6442H11.0732V15.4805Z" fill="#1A1918"/>
<path d="M11.0732 19.3594H12.6251V20.5232H11.0732V19.3594Z" fill="#1A1918"/>
<path d="M11.0732 13.5398H12.6251V14.7035H11.0732V13.5398Z" fill="#1A1918"/>
<path d="M12.6251 12.5048L12.4718 12.326C12.2356 12.2642 12.0204 12.1398 11.8492 11.9661C11.6783 12.1396 11.4639 12.2639 11.2284 12.3257L11.0732 12.5052V12.7644H12.6251V12.5048Z" fill="#1A1918"/>
<path d="M10.2969 11.0192C10.3092 11.3229 10.5531 11.5659 10.857 11.5772C11.1607 11.5883 11.4217 11.3639 11.4565 11.0619L11.4533 11.0213V11.0192C11.4493 10.96 11.4459 10.9127 11.4395 10.8723C11.3619 10.5935 11.0915 10.4142 10.8044 10.4511C10.5177 10.4879 10.3014 10.73 10.2969 11.0192Z" fill="#1A1918"/>
<path d="M15.7519 7.95824C14.8723 8.01811 14.0337 8.35127 13.3531 8.91144C13.4267 9.19104 13.4139 9.48671 13.3164 9.75889C13.402 9.79226 13.4838 9.83442 13.5606 9.88482C14.6475 9.79652 15.7263 10.1337 16.5696 10.825H20.0222C20.141 10.8231 20.2519 10.7657 20.322 10.6699C20.4074 10.558 20.4351 10.4126 20.3968 10.2773C19.9852 8.79924 18.5077 7.91635 16.4454 7.91635C16.2135 7.9136 15.9818 7.92775 15.7519 7.95824Z" fill="#1A1918"/>
<path d="M13.4133 12.2336L17.4036 16.8999C17.4842 16.9945 17.6054 17.0448 17.7293 17.0349C17.8465 17.0289 17.9536 16.9676 18.018 16.8697C18.8113 15.6505 18.4835 13.9851 17.1406 12.4159C16.8617 12.0865 16.5495 11.7866 16.2095 11.521C15.6168 11.0216 14.8862 10.7141 14.1148 10.6396C14.3133 11.272 14.0128 11.9535 13.4121 12.2336H13.4133Z" fill="#1A1918"/>
<path d="M11.8371 10.0492C11.8513 10.0492 11.8615 10.0464 11.8759 10.0456C12.0465 9.88067 12.2577 9.76353 12.488 9.70585C12.6483 9.4702 12.6658 9.1656 12.5343 8.91319C12.4024 8.66064 12.1425 8.50079 11.8577 8.49736C11.6503 8.49516 11.4509 8.57577 11.3034 8.72162C11.1562 8.86732 11.0732 9.06604 11.0732 9.27327C11.0741 9.42845 11.1223 9.57992 11.2114 9.70709C11.4429 9.7649 11.6551 9.88301 11.8266 10.0492H11.8371Z" fill="#1A1918"/>
<path d="M13.4009 11.0182C13.4009 11.3397 13.1405 11.6002 12.8192 11.6002C12.4977 11.6002 12.2373 11.3397 12.2373 11.0182C12.2373 10.6969 12.4977 10.4365 12.8192 10.4365C13.1405 10.4365 13.4009 10.6969 13.4009 11.0182Z" fill="#1A1918"/>
<path d="M8.34899 7.21195C9.22749 7.30685 10.0653 7.63149 10.7786 8.15321C10.9836 7.95751 11.2387 7.82211 11.5155 7.76127C11.5183 7.74383 11.5195 7.72804 11.5223 7.71046C11.3355 6.89308 10.9654 6.12857 10.44 5.47529C9.17599 3.84245 7.61236 3.183 6.25734 3.71254C6.14789 3.75566 6.06549 3.84836 6.03528 3.96193C6.00136 4.08182 6.02663 4.21063 6.10325 4.30868L8.34899 7.21195Z" fill="#1A1918"/>
<path d="M7.49114 11.5184C7.1496 11.7847 6.83649 12.0852 6.55662 12.4153C5.21423 13.9838 4.88835 15.649 5.68032 16.8691C5.74487 16.9666 5.85171 17.0274 5.96844 17.0336C6.09258 17.0424 6.21385 16.9921 6.29501 16.8979L10.2845 12.2334C9.81914 12.0073 9.5232 11.5362 9.52141 11.0187C9.5232 10.8902 9.54366 10.7623 9.58184 10.6394C8.81197 10.7137 8.08275 11.0202 7.49114 11.5184Z" fill="#1A1918"/>
<path d="M3.8112 10.8242H7.12742C7.97103 10.1328 9.04988 9.79549 10.137 9.88352C10.2139 9.83353 10.2956 9.79151 10.381 9.75814C10.2736 9.45437 10.2694 9.12368 10.3685 8.81716C9.70865 8.31728 8.91805 8.01942 8.09215 7.9594C8.07141 7.95721 8.05082 7.95322 8.03049 7.94787C7.81722 7.92452 7.60244 7.91354 7.38765 7.91491C5.32594 7.91491 3.84828 8.7978 3.43588 10.2766C3.39866 10.4122 3.42736 10.5574 3.51347 10.6686C3.58309 10.7642 3.69309 10.8218 3.8112 10.8242Z" fill="#1A1918"/>
<path d="M12.2964 7.76096C12.2964 7.77057 12.2964 7.77826 12.293 7.78815C12.5546 7.86752 12.7905 8.01474 12.9769 8.21483C13.7046 7.65727 14.5718 7.3112 15.4833 7.21425L17.7297 4.30837C17.8062 4.21128 17.8317 4.08329 17.7983 3.96422C17.7681 3.84914 17.6853 3.75548 17.5749 3.7114C16.4465 3.26948 15.1729 3.65661 14.048 4.7448L14.0456 4.74755C13.8111 4.97483 13.5931 5.21872 13.3935 5.47718C12.8538 6.14185 12.4778 6.92407 12.2964 7.76096Z" fill="#1A1918"/>
<path d="M11.9147 6.42991C12.1459 5.92138 12.4361 5.44183 12.7799 5.00114C12.9721 4.75244 13.1795 4.51555 13.4003 4.2917C13.401 4.07568 13.39 3.8598 13.3674 3.64502C13.3624 3.62648 13.3588 3.60767 13.3569 3.58844C13.2972 2.53581 12.8377 1.54567 12.0722 0.820576C11.9441 0.71085 11.7554 0.71085 11.6271 0.820576C10.8614 1.54553 10.4017 2.53568 10.3421 3.58844C10.3401 3.6078 10.3366 3.62703 10.3317 3.64571C10.3138 3.80336 10.3052 3.97749 10.3018 4.16357C10.573 4.42409 10.8246 4.70382 11.0546 5.00114C11.3961 5.44238 11.6847 5.92179 11.9147 6.42991Z" fill="#1A1918"/>
<path d="M18.5085 22.4624H12.6249V21.2988H11.0731V22.4624H3.31471C3.10048 22.4624 2.92676 22.6361 2.92676 22.8504C2.92676 23.0646 3.10048 23.2383 3.31471 23.2383H18.5085C18.7227 23.2383 18.8965 23.0646 18.8965 22.8504C18.8965 22.6361 18.7227 22.4624 18.5085 22.4624Z" fill="#1A1918"/>
<path d="M20.3833 22.4624H19.9954C19.7811 22.4624 19.6074 22.6361 19.6074 22.8504C19.6074 23.0646 19.7811 23.2383 19.9954 23.2383H20.3833C20.5976 23.2383 20.7713 23.0646 20.7713 22.8504C20.7713 22.6361 20.5976 22.4624 20.3833 22.4624Z" fill="#1A1918"/>
</svg>
