<svg width="23" height="14" viewBox="0 0 23 14" fill="none" xmlns="http://www.w3.org/2000/svg">
<path d="M11.1498 9.63e-05C11.4165 9.63233e-05 11.6665 0.0417633 11.8998 0.125096C12.1331 0.20843 12.3498 0.350097 12.5498 0.550097L21.7498 9.7501C22.1165 10.1168 22.2998 10.5834 22.2998 11.1501C22.2998 11.7168 22.1165 12.1834 21.7498 12.5501C21.3831 12.9168 20.9165 13.1001 20.3498 13.1001C19.7831 13.1001 19.3165 12.9168 18.9498 12.5501L11.1498 4.7501L3.34981 12.5501C2.98314 12.9168 2.51647 13.1001 1.94981 13.1001C1.38314 13.1001 0.916473 12.9168 0.549807 12.5501C0.18314 12.1834 -0.000194429 11.7168 -0.000194379 11.1501C-0.00019433 10.5834 0.18314 10.1168 0.549807 9.7501L9.74981 0.550096C9.94981 0.350097 10.1665 0.20843 10.3998 0.125096C10.6331 0.0417632 10.8831 9.62767e-05 11.1498 9.63e-05Z" fill="#484746"/>
</svg>
